<?xml version="1.0" encoding="UTF-8" standalone="no"?>
<svg width="44px" height="40px" viewBox="0 0 44 40" version="1.1" xmlns="http://www.w3.org/2000/svg" xmlns:xlink="http://www.w3.org/1999/xlink">
    <!-- Generator: sketchtool 40.1 (33804) - http://www.bohemiancoding.com/sketch -->
    <title>0EF0CA4F-A6AC-4255-900F-B6D03225FBB6</title>
    <desc>Created with sketchtool.</desc>
    <defs>
        <linearGradient x1="50%" y1="0%" x2="50%" y2="100%" id="linearGradient-1">
            <stop stop-color="#FDCA0D" offset="0%"></stop>
            <stop stop-color="#FDCC13" offset="35.9011907%"></stop>
            <stop stop-color="#FD7B00" offset="100%"></stop>
        </linearGradient>
        <polygon id="path-2" points="34.8078876 4.78942787 79.1251561 0.00333218035 123.189569 4.78942787 157.841415 51.0266874 79 142.85032 0.151619188 51.0266874"></polygon>
        <linearGradient x1="0%" y1="14.9661404%" x2="100%" y2="100%" id="linearGradient-4">
            <stop stop-color="#FA7900" offset="0%"></stop>
            <stop stop-color="#F35300" offset="100%"></stop>
        </linearGradient>
        <linearGradient x1="50%" y1="0%" x2="50%" y2="100%" id="linearGradient-5">
            <stop stop-color="#FDCE1F" offset="0%"></stop>
            <stop stop-color="#FDAC00" offset="100%"></stop>
        </linearGradient>
        <linearGradient x1="28.7540427%" y1="30.6154677%" x2="94.1091651%" y2="10.6488517%" id="linearGradient-6">
            <stop stop-color="#FDC003" offset="0%"></stop>
            <stop stop-color="#FDD12B" offset="100%"></stop>
        </linearGradient>
        <linearGradient x1="75.6875406%" y1="75.3560649%" x2="6.29709175%" y2="100%" id="linearGradient-7">
            <stop stop-color="#FC8A00" offset="0%"></stop>
            <stop stop-color="#FCAA00" offset="100%"></stop>
        </linearGradient>
        <linearGradient x1="100%" y1="100%" x2="0%" y2="50%" id="linearGradient-8">
            <stop stop-color="#FCB203" offset="0%"></stop>
            <stop stop-color="#FEE68F" offset="100%"></stop>
        </linearGradient>
        <linearGradient x1="75%" y1="25%" x2="75%" y2="98.5957753%" id="linearGradient-9">
            <stop stop-color="#FEDE69" offset="0%"></stop>
            <stop stop-color="#FEEDAD" offset="100%"></stop>
        </linearGradient>
        <linearGradient x1="50%" y1="0%" x2="50%" y2="100%" id="linearGradient-10">
            <stop stop-color="#FEDE69" offset="0%"></stop>
            <stop stop-color="#FEF3C7" offset="100%"></stop>
        </linearGradient>
        <linearGradient x1="50%" y1="0%" x2="50%" y2="100%" id="linearGradient-11">
            <stop stop-color="#FDCC20" offset="0%"></stop>
            <stop stop-color="#FFFFFF" offset="100%"></stop>
        </linearGradient>
    </defs>
    <g id="Resources" stroke="none" stroke-width="1" fill="none" fill-rule="evenodd">
        <g id="05.-Resources" transform="translate(-481.000000, -297.000000)">
            <g id="Content" transform="translate(435.000000, 110.000000)">
                <g id="UI-Kit" transform="translate(0.000000, 70.000000)">
                    <g id="Sketch" transform="translate(11.000000, 117.000000)">
                        <g id="icon-sketch" transform="translate(35.000000, 0.000000)">
                            <g id="Icon-512">
                                <mask id="mask-3" fill="white">
                                    <use xlink:href="#path-2"></use>
                                </mask>
                                <use id="Mask" fill="url(#linearGradient-1)" xlink:href="#path-2"></use>
                                <polygon id="Bottom-Right-Shape" fill="url(#linearGradient-4)" mask="url(#mask-3)" transform="translate(118.420644, 96.924121) scale(1, -1) translate(-118.420644, -96.924121) " points="125.73742 142.834459 157.841289 142.834459 79 51.0137824"></polygon>
                                <polygon id="Bottom-Left-Shape" fill="url(#linearGradient-4)" mask="url(#mask-3)" transform="translate(39.579477, 96.935739) scale(-1, -1) translate(-39.579477, -96.935739) " points="46.8961311 142.856985 79 142.856985 0.158953722 51.0144928"></polygon>
                                <polygon id="Bottom-center-shape" fill="url(#linearGradient-5)" mask="url(#mask-3)" transform="translate(78.995537, 96.932640) scale(1, -1) translate(-78.995537, -96.932640) " points="32.2631428 142.849493 125.727932 142.825838 79.0024064 51.0157869"></polygon>
                                <polygon id="Bottom-Left-line" fill="#FDCA0D" mask="url(#mask-3)" transform="translate(55.632775, 96.932640) scale(1, -1) translate(-55.632775, -96.932640) " points="32.2631428 142.849493 33.8653574 142.849493 79.0024064 51.0157869"></polygon>
                                <polygon id="Bottom-Right-line" fill="#FDCA0D" mask="url(#mask-3)" transform="translate(102.369632, 96.931346) scale(-1, -1) translate(-102.369632, -96.931346) " points="79 142.848198 80.6022146 142.848198 125.739264 51.0144928"></polygon>
                                <polygon id="Top-Right-Shape" fill="url(#linearGradient-6)" mask="url(#mask-3)" points="123.187686 4.78317541 125.740728 51.0123716 79.1269767 0.00614951313"></polygon>
                                <polygon id="Right-Shape" fill="url(#linearGradient-7)" mask="url(#mask-3)" points="123.187686 4.78317541 125.740728 51.0123716 157.840115 51.0123716"></polygon>
                                <polygon id="Righ-Line" fill="url(#linearGradient-8)" mask="url(#mask-3)" points="125.65547 49.4197847 125.740728 51.0123716 157.840115 51.0123716"></polygon>
                                <polygon id="Top-Right-Line" fill="url(#linearGradient-9)" mask="url(#mask-3)" points="124.148552 51.0123716 125.740728 51.0123716 123.187797 4.79834501"></polygon>
                                <polygon id="Left-shape" fill="url(#linearGradient-7)" mask="url(#mask-3)" transform="translate(17.485285, 27.897207) scale(-1, 1) translate(-17.485285, -27.897207) " points="0.159186565 4.7826087 2.71222881 51.0118049 34.8113827 51.0118049"></polygon>
                                <polygon id="Left-Line" fill="url(#linearGradient-8)" mask="url(#mask-3)" transform="translate(16.251276, 50.216583) scale(-1, 1) translate(-16.251276, -50.216583) " points="0.158953722 49.4202899 0.244212127 51.0128767 32.3435989 51.0128767"></polygon>
                                <polygon id="Top-Left-shape" fill="url(#linearGradient-6)" mask="url(#mask-3)" transform="translate(55.695703, 25.506017) scale(-1, 1) translate(-55.695703, -25.506017) " points="76.5707584 4.77702589 79.1238007 51.006222 32.2676056 0.00581151524"></polygon>
                                <polygon id="Top-Left-line" fill="url(#linearGradient-9)" mask="url(#mask-3)" points="32.2746383 50.9966352 33.8668141 50.9966352 34.810407 4.78287994"></polygon>
                                <polygon id="Top-Centher-shape" fill="url(#linearGradient-10)" mask="url(#mask-3)" points="32.2689445 51.0123716 125.733733 51.0123716 79.1234701 0.00614951313"></polygon>
                                <path d="M82.6313623,3.84488197 L125.733733,51.0123716 L32.2689445,51.0123716 L75.1775262,4.3017365 L35.2890652,49.4264394 L122.713612,49.4264394 L82.6313623,3.84488197 Z" id="Top-Center-line" fill="url(#linearGradient-11)" mask="url(#mask-3)"></path>
                            </g>
                        </g>
                    </g>
                </g>
            </g>
        </g>
    </g>
</svg>